<svg xmlns="http://www.w3.org/2000/svg" version="1.1" xmlns:xlink="http://www.w3.org/1999/xlink" xmlns:svgjs="http://svgjs.dev/svgjs" width="1000" height="1000" viewBox="0 0 1000 1000"><rect width="1000" height="1000" fill="#000000"></rect><g transform="matrix(0.7,0,0,0.7,149.8349173939838,219.87700502477838)"><svg viewBox="0 0 308 247" data-background-color="#60777f" preserveAspectRatio="xMidYMid meet" height="801" width="1000" xmlns="http://www.w3.org/2000/svg" xmlns:xlink="http://www.w3.org/1999/xlink"><defs></defs><g id="tight-bounds" transform="matrix(1,0,0,1,0.07263634664712981,-0.10000004398082751)"><svg viewBox="0 0 307.8547210432565 247.2" height="247.2" width="307.8547210432565"><g><svg viewBox="0 0 395.52 317.5931285661915" height="247.2" width="307.8547210432565"><g transform="matrix(1,0,0,1,0,192.24872179067674)"><svg viewBox="0 0 395.52 125.3444067755148" height="125.3444067755148" width="395.52"><g><svg viewBox="0 0 395.52 125.3444067755148" height="125.3444067755148" width="395.52"><g><svg viewBox="0 0 395.52 80.57893062791335" height="80.57893062791335" width="395.52"><g transform="matrix(1,0,0,1,0,0)"><svg width="395.52" viewBox="3.799999952316284 -36.849998474121094 182.33999633789062 37.14999771118164" height="80.57893062791335" data-palette-color="#ffffff"><g class="undefined-text-0" data-fill-palette-color="primary" id="text-0"><path d="M14.75 0L5.3 0Q4.65 0 4.23-0.38 3.8-0.75 3.8-1.25L3.8-1.25 3.8-35.3Q3.8-35.9 4.28-36.23 4.75-36.55 5.3-36.55L5.3-36.55 13.5-36.55Q16.3-36.55 18.63-35.9 20.95-35.25 22.33-33.43 23.7-31.6 23.7-28.05L23.7-28.05Q23.7-24.9 22.53-22.78 21.35-20.65 19.45-19.8L19.45-19.8Q21-19.2 22.15-18.15 23.3-17.1 23.95-15.45 24.6-13.8 24.6-11.2L24.6-11.2 24.6-10.3Q24.6-6.5 23.3-4.25 22-2 19.75-1 17.5 0 14.75 0L14.75 0ZM7.1-18.4L7.1-3.05 14.3-3.05Q17.6-3.05 19.45-4.83 21.3-6.6 21.3-10.45L21.3-10.45 21.3-11.3Q21.3-15.2 19.45-16.8 17.6-18.4 14.3-18.4L14.3-18.4 7.1-18.4ZM7.1-33.5L7.1-21.25 13.6-21.25Q17.1-21.25 18.75-22.7 20.4-24.15 20.4-27.7L20.4-27.7Q20.4-30.05 19.5-31.3 18.6-32.55 17.05-33.02 15.5-33.5 13.4-33.5L13.4-33.5 7.1-33.5ZM29.8 0L29.8 0Q29.4 0 28.95-0.18 28.5-0.35 28.2-0.68 27.9-1 27.9-1.4L27.9-1.4Q27.9-1.6 27.95-1.75L27.95-1.75 38.4-35.7Q38.6-36.3 39.15-36.58 39.7-36.85 40.35-36.85L40.35-36.85Q41.05-36.85 41.62-36.55 42.2-36.25 42.35-35.7L42.35-35.7 52.75-1.75Q52.8-1.6 52.8-1.45L52.8-1.45Q52.8-1.05 52.5-0.73 52.2-0.4 51.75-0.2 51.3 0 50.8 0L50.8 0Q50.4 0 50.05-0.2 49.7-0.4 49.6-0.85L49.6-0.85 47.25-8.55 33.45-8.55 31.15-0.85Q31-0.4 30.65-0.2 30.3 0 29.8 0ZM40.35-31.55L34.25-11.4 46.4-11.4 40.35-31.55ZM59.25 0L59.25 0Q58.59 0 58.09-0.33 57.59-0.65 57.59-1.3L57.59-1.3 57.59-35.3Q57.59-36 58.09-36.27 58.59-36.55 59.25-36.55L59.25-36.55Q59.84-36.55 60.3-36.23 60.75-35.9 61.15-35.4 61.55-34.9 61.84-34.25L61.84-34.25 75.34-7.65 75.34-35.35Q75.34-36 75.84-36.27 76.34-36.55 77-36.55L77-36.55Q77.59-36.55 78.12-36.27 78.65-36 78.65-35.35L78.65-35.35 78.65-1.3Q78.65-0.65 78.12-0.33 77.59 0 77 0L77 0Q76.3 0 75.75-0.6 75.2-1.2 74.8-1.9L74.8-1.9 60.9-28.95 60.9-1.3Q60.9-0.65 60.37-0.33 59.84 0 59.25 0ZM87.89 0L87.89 0Q87.24 0 86.74-0.33 86.24-0.65 86.24-1.3L86.24-1.3 86.24-35.35Q86.24-36 86.74-36.27 87.24-36.55 87.89-36.55L87.89-36.55Q88.49-36.55 89.02-36.27 89.54-36 89.54-35.35L89.54-35.35 89.54-17.65 103.99-36.05Q104.34-36.55 105.04-36.55L105.04-36.55Q105.44-36.55 105.87-36.3 106.29-36.05 106.57-35.68 106.84-35.3 106.84-34.85L106.84-34.85Q106.84-34.7 106.79-34.48 106.74-34.25 106.59-34.1L106.59-34.1 95.84-20.75 108.14-2.25Q108.34-1.95 108.34-1.6L108.34-1.6Q108.34-1.15 108.07-0.78 107.79-0.4 107.37-0.18 106.94 0.05 106.44 0.05L106.44 0.05Q106.09 0.05 105.77-0.13 105.44-0.3 105.19-0.65L105.19-0.65 93.64-18 89.54-12.8 89.54-1.3Q89.54-0.65 89.02-0.33 88.49 0 87.89 0ZM111.49 0L111.49 0Q111.09 0 110.64-0.18 110.19-0.35 109.89-0.68 109.59-1 109.59-1.4L109.59-1.4Q109.59-1.6 109.64-1.75L109.64-1.75 120.09-35.7Q120.29-36.3 120.84-36.58 121.39-36.85 122.04-36.85L122.04-36.85Q122.74-36.85 123.32-36.55 123.89-36.25 124.04-35.7L124.04-35.7 134.44-1.75Q134.49-1.6 134.49-1.45L134.49-1.45Q134.49-1.05 134.19-0.73 133.89-0.4 133.44-0.2 132.99 0 132.49 0L132.49 0Q132.09 0 131.74-0.2 131.39-0.4 131.29-0.85L131.29-0.85 128.94-8.55 115.14-8.55 112.84-0.85Q112.69-0.4 112.34-0.2 111.99 0 111.49 0ZM122.04-31.55L115.94-11.4 128.09-11.4 122.04-31.55ZM158.39 0.05L158.39 0.05Q157.84 0.05 157.39-0.5 156.94-1.05 156.69-1.65L156.69-1.65 148.94-16.65 142.59-16.65 142.59-1.3Q142.59-0.65 142.06-0.33 141.54 0 140.94 0L140.94 0Q140.29 0 139.79-0.33 139.29-0.65 139.29-1.3L139.29-1.3 139.29-35.35Q139.29-35.85 139.64-36.18 139.99-36.5 140.54-36.55L140.54-36.55 149.39-36.55Q152.34-36.55 154.79-35.65 157.24-34.75 158.71-32.63 160.19-30.5 160.19-26.7L160.19-26.7Q160.19-23.6 159.16-21.6 158.14-19.6 156.36-18.53 154.59-17.45 152.39-17.05L152.39-17.05 160.09-2.25Q160.24-2.1 160.26-1.93 160.29-1.75 160.29-1.6L160.29-1.6Q160.29-1.2 160.01-0.8 159.74-0.4 159.29-0.18 158.84 0.05 158.39 0.05ZM142.59-33.5L142.59-19.5 149.39-19.5Q152.74-19.5 154.81-21.13 156.89-22.75 156.89-26.55L156.89-26.55Q156.89-30.3 154.81-31.9 152.74-33.5 149.39-33.5L149.39-33.5 142.59-33.5ZM175.69 0.3L175.69 0.3Q172.79 0.3 170.44-0.75 168.09-1.8 166.71-4.15 165.34-6.5 165.34-10.4L165.34-10.4 165.34-25.9Q165.34-29.75 166.71-32.1 168.09-34.45 170.41-35.5 172.74-36.55 175.64-36.55L175.64-36.55Q178.84-36.55 181.19-35.43 183.54-34.3 184.84-32.35 186.14-30.4 186.14-27.9L186.14-27.9Q186.14-26.95 185.69-26.58 185.24-26.2 184.49-26.2L184.49-26.2Q183.84-26.2 183.36-26.5 182.89-26.8 182.84-27.45L182.84-27.45Q182.59-29.4 181.74-30.75 180.89-32.1 179.39-32.8 177.89-33.5 175.69-33.5L175.69-33.5Q172.34-33.5 170.49-31.65 168.64-29.8 168.64-25.9L168.64-25.9 168.64-10.4Q168.64-6.5 170.49-4.63 172.34-2.75 175.69-2.75L175.69-2.75Q179.04-2.75 180.94-4.63 182.84-6.5 182.84-10.4L182.84-10.4 182.84-16.35 176.14-16.35Q175.54-16.35 175.21-16.8 174.89-17.25 174.89-17.8L174.89-17.8Q174.89-18.3 175.21-18.75 175.54-19.2 176.14-19.2L176.14-19.2 184.89-19.2Q185.49-19.2 185.81-18.82 186.14-18.45 186.14-17.9L186.14-17.9 186.14-10.4Q186.14-6.5 184.74-4.15 183.34-1.8 180.99-0.75 178.64 0.3 175.69 0.3Z" fill="#ffffff" data-fill-palette-color="primary"></path></g></svg></g></svg></g><g transform="matrix(1,0,0,1,0,99.60168225482863)"><svg viewBox="0 0 395.52 25.742724520686174" height="25.742724520686174" width="395.52"><g transform="matrix(1,0,0,1,0,0)"><svg width="395.52" viewBox="1.25 -31.950000762939453 495.45001220703125 32.25" height="25.742724520686174" data-palette-color="#ffffff"><path d="M22.7-31.95L22.95-31.65 22.7-29.65 17.35-29.8 13.45-29.8 13.3-9.85 13.4 0 10.8 0 10.95-9.7 10.8-29.8 6.9-29.8 1.45-29.65 1.25-29.95 1.5-31.95 22.7-31.95ZM47.4-24.75L47.3-12.1 47.3-8.75Q47.4-4.5 44.85-2.15 42.3 0.2 37.65 0.2L37.65 0.2Q33.05 0.2 30.6-2.13 28.15-4.45 28.2-8.75L28.2-8.75 28.25-12.4 28.2-24.75 30.7-24.75 30.55-9.05Q30.5-5.55 32.35-3.73 34.2-1.9 37.75-1.9L37.75-1.9Q41.3-1.9 43.15-3.73 45-5.55 45-9.05L45-9.05 44.9-24.75 47.4-24.75ZM74.89-12.9Q80.64-11.95 80.64-6.9L80.64-6.9Q80.64-3.45 78.02-1.68 75.39 0.1 70.39 0.1L70.39 0.1Q66.64 0.1 64.89 0L64.89 0 64.99-7.5 64.89-24.75 71.49-24.8Q74.99-24.8 76.94-23.28 78.89-21.75 78.89-18.9L78.89-18.9Q78.89-14.5 74.89-12.9L74.89-12.9ZM76.29-18.65Q76.29-20.7 74.94-21.75 73.59-22.8 70.99-22.8L70.99-22.8 67.34-22.8 67.29-13.8 72.14-13.7Q76.29-14.45 76.29-18.65L76.29-18.65ZM70.54-1.8Q74.19-1.8 76.17-3.15 78.14-4.5 78.14-7L78.14-7Q78.14-11.15 72.59-11.75L72.59-11.75 67.24-11.65 67.24-7.7 67.29-1.95Q68.94-1.8 70.54-1.8L70.54-1.8ZM97.39-24.75L106.49 0 103.94 0 103.39-2.25 101.54-7.2 89.74-7.2 87.79-2.35 87.14 0 84.64 0 94.59-24.75 97.39-24.75ZM95.59-9.2L100.79-9.25 96.04-22.1 95.79-22.1 90.59-9.25 95.59-9.2ZM133.09-24.8L132.99-7.15 132.99 0 130.39 0 115.79-20.65 115.59-20.65 115.54-8 115.59 0 113.29 0 113.39-7.3 113.34-24.75 115.94-24.75 130.54-4.05 130.79-4.05 130.79-24.65 133.09-24.8ZM151.04-24.95Q155.14-24.95 158.24-23L158.24-23 157.74-20.75 157.34-20.65Q156.04-21.7 154.36-22.28 152.69-22.85 150.84-22.85L150.84-22.85Q146.59-22.85 144.36-20.2 142.14-17.55 142.14-12.4L142.14-12.4Q142.14-7.25 144.31-4.55 146.49-1.85 150.59-1.85L150.59-1.85Q152.44-1.85 154.31-2.5 156.19-3.15 157.74-4.3L157.74-4.3 158.09-4.15 157.89-1.9Q154.44 0.25 150.54 0.25L150.54 0.25Q145.24 0.25 142.39-3 139.54-6.25 139.54-12.25L139.54-12.25Q139.54-18.35 142.54-21.65 145.54-24.95 151.04-24.95L151.04-24.95ZM174.13-25Q179.43-25 182.28-21.83 185.13-18.65 185.13-12.85L185.13-12.85Q185.13-6.55 182.11-3.15 179.08 0.25 173.53 0.25L173.53 0.25Q168.23 0.25 165.36-3 162.48-6.25 162.48-12.2L162.48-12.2Q162.48-18.35 165.51-21.68 168.53-25 174.13-25L174.13-25ZM173.93-22.85Q165.03-22.85 165.03-12.5L165.03-12.5Q165.03-1.85 173.63-1.85L173.63-1.85Q178.03-1.85 180.33-4.5 182.63-7.15 182.63-12.45L182.63-12.45Q182.63-22.85 173.93-22.85L173.93-22.85ZM208.48-24.8Q212.28-24.8 214.33-22.95 216.38-21.1 216.38-17.65L216.38-17.65Q216.38-13.55 213.88-11.28 211.38-9 206.88-9L206.88-9 203.58-9 203.58-7.7 203.63 0 201.18 0 201.28-7.5 201.18-24.75 208.48-24.8ZM208.13-11Q210.88-11.4 212.35-13.05 213.83-14.7 213.83-17.45L213.83-17.45Q213.83-20 212.38-21.35 210.93-22.7 208.08-22.8L208.08-22.8 203.68-22.75 203.58-11.1 208.13-11ZM233.07-25Q238.38-25 241.22-21.83 244.07-18.65 244.07-12.85L244.07-12.85Q244.07-6.55 241.05-3.15 238.03 0.25 232.47 0.25L232.47 0.25Q227.18 0.25 224.3-3 221.43-6.25 221.43-12.2L221.43-12.2Q221.43-18.35 224.45-21.68 227.47-25 233.07-25L233.07-25ZM232.88-22.85Q223.97-22.85 223.97-12.5L223.97-12.5Q223.97-1.85 232.57-1.85L232.57-1.85Q236.97-1.85 239.28-4.5 241.57-7.15 241.57-12.45L241.57-12.45Q241.57-22.85 232.88-22.85L232.88-22.85ZM261.12-10.1Q264.27-5.35 268.17-0.6L268.17-0.6 268.17-0.25Q267.22 0.15 265.97 0.3L265.97 0.3 265.52 0.05Q261.82-4.95 259.02-9.55L259.02-9.55 253.92-9.5 253.92-7.7 253.97 0 251.52 0 251.62-7.5 251.52-24.75 258.82-24.8Q262.62-24.8 264.67-22.98 266.72-21.15 266.72-17.8L266.72-17.8Q266.72-15.15 265.27-13.15 263.82-11.15 261.12-10.1L261.12-10.1ZM254.02-22.7L253.92-11.6 259.12-11.5Q261.62-12.15 262.9-13.7 264.17-15.25 264.17-17.6L264.17-17.6Q264.17-22.5 258.42-22.8L258.42-22.8 254.02-22.7ZM298.37-2.15L298.62-1.9 298.32 0 284.22 0 284.32-7.5 284.22-24.75 298.32-24.75 298.52-24.45 298.27-22.55 292.12-22.7 286.72-22.7 286.67-13.8 291.77-13.75 296.17-13.85 296.32-13.55 296.12-11.6 291.57-11.7 286.62-11.65 286.62-7.7 286.67-2.05 291.77-2.05 298.37-2.15ZM323.22-24.75L314.72-12.85 323.87 0 320.87 0 319.77-1.85 313.07-10.95 306.17-1.7 305.17 0 302.47 0 311.57-12.6 302.87-24.75 305.97-24.75 306.97-22.95 313.22-14.5 319.42-22.9 320.42-24.75 323.22-24.75ZM339.06-24.95Q343.16-24.95 346.26-23L346.26-23 345.76-20.75 345.36-20.65Q344.06-21.7 342.39-22.28 340.71-22.85 338.86-22.85L338.86-22.85Q334.61-22.85 332.39-20.2 330.16-17.55 330.16-12.4L330.16-12.4Q330.16-7.25 332.34-4.55 334.51-1.85 338.61-1.85L338.61-1.85Q340.46-1.85 342.34-2.5 344.21-3.15 345.76-4.3L345.76-4.3 346.11-4.15 345.91-1.9Q342.46 0.25 338.56 0.25L338.56 0.25Q333.26 0.25 330.41-3 327.56-6.25 327.56-12.25L327.56-12.25Q327.56-18.35 330.56-21.65 333.56-24.95 339.06-24.95L339.06-24.95ZM367.26-2.15L367.51-1.9 367.21 0 353.11 0 353.21-7.5 353.11-24.75 367.21-24.75 367.41-24.45 367.16-22.55 361.01-22.7 355.61-22.7 355.56-13.8 360.66-13.75 365.06-13.85 365.21-13.55 365.01-11.6 360.46-11.7 355.51-11.65 355.51-7.7 355.56-2.05 360.66-2.05 367.26-2.15ZM386.76-2.1L386.96-1.85 386.71 0 374.26 0 374.31-7.5 374.26-24.75 376.71-24.75 376.61-7.7 376.66-2.1 386.76-2.1ZM407.01-2.15L407.26-1.9 406.96 0 392.86 0 392.96-7.5 392.86-24.75 406.96-24.75 407.16-24.45 406.91-22.55 400.76-22.7 395.36-22.7 395.31-13.8 400.41-13.75 404.81-13.85 404.96-13.55 404.76-11.6 400.21-11.7 395.26-11.65 395.26-7.7 395.31-2.05 400.41-2.05 407.01-2.15ZM433.85-24.8L433.75-7.15 433.75 0 431.15 0 416.55-20.65 416.35-20.65 416.3-8 416.35 0 414.05 0 414.15-7.3 414.1-24.75 416.7-24.75 431.3-4.05 431.55-4.05 431.55-24.65 433.85-24.8ZM451.8-24.95Q455.9-24.95 459-23L459-23 458.5-20.75 458.1-20.65Q456.8-21.7 455.13-22.28 453.45-22.85 451.6-22.85L451.6-22.85Q447.35-22.85 445.13-20.2 442.9-17.55 442.9-12.4L442.9-12.4Q442.9-7.25 445.08-4.55 447.25-1.85 451.35-1.85L451.35-1.85Q453.2-1.85 455.08-2.5 456.95-3.15 458.5-4.3L458.5-4.3 458.85-4.15 458.65-1.9Q455.2 0.25 451.3 0.25L451.3 0.25Q446 0.25 443.15-3 440.3-6.25 440.3-12.25L440.3-12.25Q440.3-18.35 443.3-21.65 446.3-24.95 451.8-24.95L451.8-24.95ZM468.35-24.75L468.25-7.7 468.3 0 465.85 0 465.95-7.5 465.85-24.75 468.35-24.75ZM487.6-24.75L496.7 0 494.15 0 493.6-2.25 491.75-7.2 479.95-7.2 478-2.35 477.35 0 474.85 0 484.8-24.75 487.6-24.75ZM485.8-9.2L491-9.25 486.25-22.1 486-22.1 480.8-9.25 485.8-9.2Z" opacity="1" transform="matrix(1,0,0,1,0,0)" fill="#ffffff" class="undefined-text-1" data-fill-palette-color="secondary" id="text-1"></path></svg></g></svg></g></svg></g></svg></g><g transform="matrix(1,0,0,1,106.19664025269168,0)"><svg viewBox="0 0 183.12671949461662 173.22597016376147" height="173.22597016376147" width="183.12671949461662"><g><svg xmlns="http://www.w3.org/2000/svg" xmlns:xlink="http://www.w3.org/1999/xlink" version="1.1" x="0" y="0" viewBox="0 2.703500270843506 100 94.59349822998047" enable-background="new 0 0 100 100" xml:space="preserve" height="173.22597016376147" width="183.12671949461662" class="icon-icon-0" data-fill-palette-color="accent" id="icon-0"><path d="M98.764 24.607L51.238 2.936c-0.683-0.31-1.79-0.31-2.472 0L1.241 24.607c-0.683 0.312-1.236 1.168-1.236 1.915v9.926h9.455v44.633c0 0.747 0.605 1.352 1.352 1.352h13.513c0.747 0 1.352-0.604 1.352-1.352V36.448h16.216v44.633c0 0.747 0.605 1.352 1.351 1.352h13.514c0.747 0 1.352-0.604 1.352-1.352V36.448h16.216v44.633c0 0.747 0.604 1.352 1.351 1.352h13.515c0.747 0 1.352-0.604 1.352-1.352V36.448h1.351H100v-9.926C100 25.776 99.447 24.919 98.764 24.607z" fill="#ffffff" data-fill-palette-color="accent"></path><path d="M94.595 97.297H5.405C2.42 97.297 0 94.877 0 91.892l0 0c0-2.984 2.42-5.405 5.405-5.405h89.189c2.985 0 5.405 2.421 5.405 5.405l0 0C100 94.877 97.58 97.297 94.595 97.297z" fill="#ffffff" data-fill-palette-color="accent"></path></svg></g></svg></g><g></g></svg></g></svg><rect width="307.8547210432565" height="247.2" fill="none" stroke="none" visibility="hidden"></rect></g></svg></g></svg>