<svg width="41" height="40" viewBox="0 0 41 40" fill="none" xmlns="http://www.w3.org/2000/svg">
<mask id="mask0_7_25" style="mask-type:alpha" maskUnits="userSpaceOnUse" x="0" y="0" width="41" height="40">
<rect x="0.618652" width="40" height="40" fill="#D9D9D9"/>
</mask>
<g mask="url(#mask0_7_25)">
<path d="M19.2856 35V31.458C17.7296 31.1807 16.438 30.5697 15.4106 29.625C14.3826 28.6803 13.6326 27.458 13.1606 25.958L15.7436 24.875C16.1883 26.2083 16.848 27.2083 17.7226 27.875C18.598 28.5417 19.6743 28.875 20.9516 28.875C22.2016 28.875 23.2503 28.5693 24.0976 27.958C24.945 27.3473 25.3686 26.4723 25.3686 25.333C25.3686 24.1943 25.0076 23.3057 24.2856 22.667C23.563 22.0277 22.1323 21.361 19.9936 20.667C17.855 20.0003 16.3133 19.139 15.3686 18.083C14.424 17.0277 13.9516 15.7223 13.9516 14.167C13.9516 12.5557 14.4726 11.236 15.5146 10.208C16.556 9.18067 17.813 8.59733 19.2856 8.458V5H22.0356V8.458C23.341 8.62467 24.445 9.06933 25.3476 9.792C26.2503 10.514 26.924 11.4167 27.3686 12.5L24.7856 13.625C24.4243 12.7363 23.9243 12.0837 23.2856 11.667C22.6463 11.2503 21.799 11.042 20.7436 11.042C19.4936 11.042 18.5076 11.3267 17.7856 11.896C17.063 12.4653 16.7016 13.2083 16.7016 14.125C16.7016 15.153 17.1183 15.9723 17.9516 16.583C18.785 17.1943 20.299 17.8193 22.4936 18.458C24.3823 19.0413 25.792 19.9027 26.7226 21.042C27.6533 22.1807 28.1186 23.5693 28.1186 25.208C28.1186 27.014 27.584 28.4447 26.5146 29.5C25.4453 30.5553 23.9523 31.236 22.0356 31.542V35H19.2856Z" fill="#1C1B1F"/>
</g>
</svg>
