<svg width="2560" height="178" viewBox="0 0 2560 178" fill="none" xmlns="http://www.w3.org/2000/svg">
<rect width="2560" height="178" fill="#1E1E1E"/>
<path d="M0 -500H2560V606H0V-500Z" fill="white"/>
<path d="M0 123.552C64.0194 92.9526 139.189 71.4192 214.01 51.7937C398.431 3.41979 616.246 -8.70548 814.303 5.66336C959.045 16.1642 1102.38 37.7478 1240.7 65.0925C1416.21 99.7897 1596.92 128.708 1780.01 145.162C1967.25 161.989 2153.64 164.422 2323.5 108.591C2404.62 81.9273 2483.11 51.8234 2560 21.0401" stroke="#2C3333" stroke-width="30" stroke-linecap="round"/>
<path d="M2566 2.00003C2566 56.4001 2175.5 179.5 1920 144C1647.72 144 871 28.9 871 -25.5C871 -79.9001 1647.72 -53 1920 -53C2192.28 -53 2566 -52.4 2566 2.00003Z" fill="#2C3333"/>
<rect y="-60" width="62" height="173" fill="#2C3333"/>
<path d="M413.5 0.5C413.5 22.3152 370.5 27 237 52C-27 148.5 17.5004 29.3152 17.5004 7.5C52.5005 -131.5 142.29 -106.5 247.501 -106.5C352.711 -106.5 413.5 -21.3152 413.5 0.5Z" fill="#2C3333"/>
</svg>
