<svg width="1360" height="178" viewBox="0 0 1360 178" fill="none" xmlns="http://www.w3.org/2000/svg">
<rect width="1360" height="178" fill="#1E1E1E"/>
<path d="M0 -748H1360V1182H0V-748Z" fill="white"/>
<rect y="-673" width="1360" height="686" fill="#2C3333"/>
<path d="M-0.38147 0H137.119L92.6185 46L-0.38147 67V0Z" fill="#2C3333"/>
<path d="M1364.62 31C1419.62 89 1211.12 187 1015.62 149.5C810.619 98 528.619 72 502.619 -21C502.619 -94.73 812.378 -117.5 1015.62 -117.5C1218.86 -117.5 1393.62 -71 1364.62 31Z" fill="#2C3333"/>
<path d="M-76 125.867C-37.7509 95.2677 7.15999 73.7344 51.8626 54.1088C162.048 5.73498 292.184 -6.39029 410.515 7.97855C496.993 18.4794 582.629 40.063 665.271 67.4077C770.133 102.105 878.097 131.023 987.49 147.478C1099.36 164.304 1210.72 166.737 1312.2 110.906C1360.67 84.2425 1407.57 54.1385 1453.5 23.3553" stroke="#2C3333" stroke-width="30" stroke-linecap="round"/>
<path d="M-76 125.867C-37.7509 95.2677 7.15999 73.7344 51.8626 54.1088C162.048 5.73498 292.184 -6.39029 410.515 7.97855C496.993 18.4794 582.629 40.063 665.271 67.4077C770.133 102.105 878.097 131.023 987.49 147.478C1099.36 164.304 1210.72 166.737 1312.2 110.906C1360.67 84.2425 1407.57 54.1385 1453.5 23.3553" stroke="#2C3333" stroke-width="30" stroke-linecap="round"/>
<path d="M1079 35.5519C1117.25 4.95256 1162.16 -16.5808 1206.86 -36.2063C1317.05 -84.5802 1447.18 -96.7055 1565.52 -82.3366C1651.99 -71.8358 1737.63 -50.2522 1820.27 -22.9075C1925.13 11.7897 2033.1 40.7078 2142.49 57.1625C2254.36 73.9893 2365.72 76.4221 2467.2 20.5907C2515.67 -6.07273 2562.57 -36.1766 2608.5 -66.9599" stroke="#2C3333" stroke-width="30" stroke-linecap="round"/>
</svg>
