<svg width="41" height="40" viewBox="0 0 41 40" fill="none" xmlns="http://www.w3.org/2000/svg">
<mask id="mask0_7_19" style="mask-type:alpha" maskUnits="userSpaceOnUse" x="0" y="0" width="41" height="40">
<rect x="0.618652" width="40" height="40" fill="#D9D9D9"/>
</mask>
<g mask="url(#mask0_7_19)">
<path d="M27.6187 22.625C28.3133 22.625 28.9243 22.361 29.4517 21.833C29.9797 21.3057 30.2437 20.6947 30.2437 20C30.2437 19.278 29.9797 18.66 29.4517 18.146C28.9243 17.632 28.3133 17.375 27.6187 17.375C26.924 17.375 26.313 17.632 25.7857 18.146C25.2577 18.66 24.9937 19.278 24.9937 20C24.9937 20.6947 25.2577 21.3057 25.7857 21.833C26.313 22.361 26.924 22.625 27.6187 22.625ZM8.41065 35C7.66065 35 7.00765 34.7223 6.45165 34.167C5.89632 33.611 5.61865 32.958 5.61865 32.208V7.792C5.61865 7.042 5.89632 6.389 6.45165 5.833C7.00765 5.27767 7.66065 5 8.41065 5H32.8267C33.5767 5 34.2297 5.27767 34.7857 5.833C35.341 6.389 35.6187 7.042 35.6187 7.792V12.875H32.8267V7.792H8.41065V32.208H32.8267V27.125H35.6187V32.208C35.6187 32.958 35.341 33.611 34.7857 34.167C34.2297 34.7223 33.5767 35 32.8267 35H8.41065ZM22.7857 27.958C21.841 27.958 21.077 27.6663 20.4937 27.083C19.9103 26.4997 19.6187 25.7497 19.6187 24.833V15.208C19.6187 14.264 19.9103 13.5003 20.4937 12.917C21.077 12.3337 21.841 12.042 22.7857 12.042H34.1607C35.1047 12.042 35.8683 12.3337 36.4517 12.917C37.035 13.5003 37.3267 14.264 37.3267 15.208V24.833C37.3267 25.7497 37.035 26.4997 36.4517 27.083C35.8683 27.6663 35.1047 27.958 34.1607 27.958H22.7857ZM34.5767 25.208V14.833H22.4107V25.208H34.5767Z" fill="#1C1B1F"/>
</g>
</svg>
